<?xml version="1.0" encoding="utf-8"?>
<svg version="1.1" id="Layer_1"
xmlns="http://www.w3.org/2000/svg"
xmlns:xlink="http://www.w3.org/1999/xlink"
width="500px" height="500px"
xml:space="preserve">
<g id="PathID_1" transform="matrix(3.2631, 0, 0, 3.2631, 250.85, 247.95)" opacity="1">
<path style="fill:#FFBC00;fill-opacity:1" d="M48.45 -54.65L66.45 -29.9L72.8 0.05L66.45 29.95L48.45 54.7L21.95 70L-8.45 73.2L-37.55 63.75L-60.3 43.25L-72.75 15.3L-72.75 -15.25L-60.3 -43.2L-37.55 -63.7L-8.45 -73.15L21.95 -69.95L48.45 -54.65" />
</g>
<g id="PathID_2" transform="matrix(3.2631, 0, 0, 3.2631, 250.85, 247.95)" opacity="1">
</g>
<g id="PathID_3" transform="matrix(1.29527, 0, 0, 1.29527, 248.6, 236.95)" opacity="1">
<path style="fill:#F7FD87;fill-opacity:1" d="M48.45 -54.65L66.45 -29.9L72.8 0.05L66.45 29.95L48.45 54.7L21.95 70L-8.45 73.2L-37.55 63.75L-60.3 43.25L-72.75 15.3L-72.75 -15.25L-60.3 -43.2L-37.55 -63.7L-8.45 -73.15L21.95 -69.95L48.45 -54.65" />
</g>
<g id="PathID_4" transform="matrix(1.29527, 0, 0, 1.29527, 248.6, 236.95)" opacity="1">
</g>
<g id="PathID_5" transform="matrix(1.71991, 0, 0, 1.71991, 131.9, 123.6)" opacity="1">
<path style="fill:#F7FD87;fill-opacity:1" d="M82.9 47.3Q79.7 47.15 81.4 46.25L86.1 46.55Q88.7 46.4 90.95 45.35Q89.45 46.1 90.05 48.35Q90.5 49.6 87.45 49L85.35 48.05Q86.1 47.75 82.9 47.3M98.7 63.9Q97.65 47 86.25 35.15Q78.5 24.8 61.3 25.4Q43.95 25.7 39.85 37.25Q15.35 88.5 53.4 105.55L56.15 105.4Q65.7 104.65 86.7 107.1Q102.2 106.95 98.55 93.55L95.65 93.25Q93.25 93.4 92.5 94.3Q99.8 78.8 98.7 63.9M132.8 45.35Q143.9 73.15 132.05 100.7Q120.15 128.2 92.35 139.35Q71.95 147.55 50.5 142.85Q64.5 143.45 77.4 138.1Q90.5 132.95 99.95 123.5Q84.9 132.65 66.15 132.65Q38.8 132.65 19.45 113.15Q0 93.7 0 66.3Q0 38.95 19.45 19.45Q38.8 0 66.15 0L71.65 0.3L71.65 0Q82.9 1.05 94 5.8Q121.7 17.65 132.8 45.35M49.9 40.75Q51.85 37.1 49.9 45.8Q50.2 43.65 47.75 46.4Q47.6 44.85 49.9 40.75M79.7 66.45Q80.75 66.95 80.75 68Q80.75 69.35 80 68.3Q77.55 68.45 79.7 66.45M48.65 64.35L55.2 65.7Q53.55 51.7 60.4 42.9Q70.6 50.05 72.7 62.8Q73.9 70.25 75.3 85.2Q70.75 80.15 69.95 79.85Q66.15 77.55 63.3 83.2Q62.95 84.55 64.95 85.5Q65.85 85.95 68.9 86.4L65.25 89.15Q63.3 90.35 60.55 89.9Q59.45 89.15 60.1 88.5Q56.45 74.4 55.35 66.3L54.45 66.3L48.2 66Q47.75 65.1 48.65 64.35M43.35 84.1Q45.2 80.15 43.5 89Q43.05 89.6 41.85 89.3Q40.75 89 43.35 84.1" />
</g>
<g id="PathID_6" transform="matrix(1.71991, 0, 0, 1.71991, 131.9, 123.6)" opacity="1">
</g>
<g id="PathID_7" transform="matrix(8.75643, 1.53102e-006, 0, 8.75643, 191.45, 529.3)" opacity="1">
<path style="fill:#000000;fill-opacity:1" d="M1.55 -26.25L1.55 -26.6Q3.15 -27.65 3.85 -29.15Q4.55 -30.7 4.55 -32.05Q4.55 -33.55 4.05 -33.55L2.75 -33.55Q1.95 -33.65 1.45 -34.25Q1 -34.9 1 -35.8Q1 -36.85 1.65 -37.35Q2.35 -37.9 3.25 -37.9Q4.15 -37.9 4.9 -37.3Q5.65 -36.75 6.1 -35.75Q6.55 -34.75 6.55 -33.45Q6.55 -31.15 5.2 -29.1Q3.85 -27.1 1.55 -26.25M8.55 -26.25L8.55 -26.6Q10.1 -27.65 10.8 -29.2Q11.5 -30.8 11.5 -32.05Q11.5 -33.55 10.95 -33.55L10.15 -33.5L9.65 -33.55Q8.9 -33.65 8.4 -34.25Q7.9 -34.9 7.9 -35.8Q7.9 -36.8 8.6 -37.35Q9.3 -37.9 10.2 -37.9Q11.6 -37.9 12.55 -36.65Q13.55 -35.4 13.55 -33.45Q13.55 -31.15 12.15 -29.1Q10.8 -27.1 8.55 -26.25" />
</g>
<g id="PathID_8" transform="matrix(8.75643, 1.53102e-006, 0, 8.75643, 191.45, 529.3)" opacity="1">
</g>
</svg>
